<svg width="24" height="23" viewBox="0 0 24 23" fill="none" xmlns="http://www.w3.org/2000/svg">
<path d="M0.452705 7.10956L7.38235 0.179919L8.3723 1.16987L5.50144 8.09951L5.55094 8.14901L10.4512 3.24876L11.3421 4.13971L4.4125 11.0694L3.42255 10.0794L6.2934 3.14977L6.24391 3.10027L1.34366 8.00052L0.452705 7.10956ZM5.79882 12.4557L12.7285 5.52603L16.0943 8.89186L15.4013 9.58482L12.9264 7.10995L10.6496 9.38683L12.8275 11.5647L12.1345 12.2577L9.9566 10.0798L7.38273 12.6537L9.85761 15.1285L9.16464 15.8215L5.79882 12.4557ZM10.899 17.5558L16.6902 9.48776L17.5811 10.3787L13.1264 16.6154L13.1759 16.6649L18.3236 13.695L19.2146 14.586L16.2447 19.7337L16.2942 19.7832L22.5309 15.3285L23.4218 16.2194L15.3538 22.0106L14.2648 20.9217L17.304 15.6452L17.2644 15.6056L11.9879 18.6448L10.899 17.5558Z" fill="white"/>
</svg>
